<svg width="123" height="30" viewBox="0 0 123 30" fill="none" xmlns="http://www.w3.org/2000/svg">
<path d="M19.3077 1H10.6923V10.6923H1V19.3077H10.6923V29H19.3077V19.3077H29V10.6923H19.3077V1Z" stroke="#171739" stroke-linecap="round" stroke-linejoin="round"/>
<path d="M42.888 21.032V7.28H41.496C40.808 7.28 40.248 7.304 39.816 7.352C39.384 7.4 39.064 7.504 38.856 7.664C38.648 7.824 38.528 8.048 38.496 8.336L38.28 10.688H36.96V5.96H51.072V10.688H49.752L49.536 8.336C49.504 8.048 49.376 7.824 49.152 7.664C48.944 7.504 48.624 7.4 48.192 7.352C47.76 7.304 47.2 7.28 46.512 7.28H45.12V21.032C45.12 21.384 45.312 21.616 45.696 21.728C46.08 21.84 46.568 21.896 47.16 21.896H47.544V23H40.464V21.896H40.848C41.44 21.896 41.928 21.84 42.312 21.728C42.696 21.616 42.888 21.384 42.888 21.032ZM62.0873 13.16L59.1353 23H56.9993L53.7833 12.608C53.7193 12.4 53.6073 12.248 53.4473 12.152C53.2873 12.04 53.0953 11.968 52.8713 11.936C52.6633 11.888 52.4313 11.864 52.1753 11.864H52.1513V10.808H57.9353V11.864H57.8873C57.5353 11.864 57.1913 11.872 56.8553 11.888C56.5353 11.904 56.2713 11.928 56.0633 11.96C55.8713 11.976 55.7753 12.016 55.7753 12.08L58.5353 21.536H58.2473L61.3433 10.808H63.0473L66.2153 21.512H65.9993L68.6393 12.368C68.6233 12.256 68.5193 12.168 68.3273 12.104C68.1513 12.024 67.9113 11.968 67.6073 11.936C67.3193 11.888 66.9833 11.864 66.5993 11.864H66.5513V10.808H71.7113V11.864H71.6873C71.4633 11.864 71.2233 11.904 70.9673 11.984C70.7273 12.048 70.5193 12.152 70.3433 12.296C70.1673 12.44 70.0393 12.64 69.9593 12.896L66.9353 23H64.7993L61.6793 13.184L62.0873 13.16ZM80.7478 15.608V16.808C79.9478 16.888 79.2358 16.992 78.6118 17.12C77.9878 17.248 77.4438 17.4 76.9798 17.576C76.5318 17.752 76.1638 17.96 75.8758 18.2C75.5878 18.424 75.3718 18.688 75.2278 18.992C75.0838 19.296 75.0118 19.632 75.0118 20C75.0118 20.384 75.0998 20.728 75.2758 21.032C75.4518 21.32 75.6998 21.544 76.0198 21.704C76.3398 21.864 76.7078 21.944 77.1238 21.944C77.6838 21.944 78.1798 21.808 78.6118 21.536C79.0598 21.264 79.4518 20.88 79.7878 20.384C80.1238 19.888 80.4198 19.304 80.6758 18.632L80.6998 20.288C80.4598 20.896 80.1398 21.424 79.7398 21.872C79.3398 22.304 78.8758 22.64 78.3478 22.88C77.8198 23.12 77.2198 23.24 76.5478 23.24C75.8598 23.24 75.2278 23.112 74.6518 22.856C74.0918 22.6 73.6358 22.232 73.2838 21.752C72.9478 21.256 72.7798 20.68 72.7798 20.024C72.7798 19.368 72.9478 18.8 73.2838 18.32C73.6198 17.824 74.1238 17.4 74.7958 17.048C75.4678 16.696 76.2998 16.408 77.2918 16.184C78.2838 15.944 79.4358 15.752 80.7478 15.608ZM80.3398 23V20.432L80.0998 20.36V14.6C80.0998 13.912 80.0038 13.376 79.8118 12.992C79.6358 12.592 79.3718 12.312 79.0198 12.152C78.6678 11.992 78.2358 11.912 77.7238 11.912C76.9238 11.912 76.2678 12.072 75.7558 12.392C75.2598 12.712 74.8598 13.088 74.5558 13.52C74.5238 13.328 74.5318 13.152 74.5798 12.992C74.6278 12.832 74.6998 12.688 74.7958 12.56C74.8918 12.432 75.0118 12.32 75.1558 12.224C75.2998 12.128 75.4518 12.048 75.6118 11.984V14.456H73.5238V12.008C73.7638 11.816 74.0838 11.608 74.4838 11.384C74.8998 11.16 75.3958 10.968 75.9718 10.808C76.5478 10.648 77.1798 10.568 77.8678 10.568C78.4278 10.568 78.9638 10.632 79.4758 10.76C79.9878 10.888 80.4518 11.104 80.8678 11.408C81.2838 11.696 81.6118 12.088 81.8518 12.584C82.0918 13.064 82.2118 13.664 82.2118 14.384V21.056C82.2118 21.28 82.2998 21.456 82.4758 21.584C82.6518 21.712 82.8838 21.8 83.1718 21.848C83.4758 21.896 83.8198 21.92 84.2038 21.92V23H80.3398ZM93.8276 10.64V12.776C93.7156 12.728 93.5796 12.696 93.4196 12.68C93.2756 12.648 93.1236 12.624 92.9636 12.608C92.8036 12.592 92.6516 12.584 92.5076 12.584C92.0756 12.584 91.6996 12.648 91.3796 12.776C91.0596 12.888 90.7716 13.064 90.5156 13.304C90.2756 13.528 90.0516 13.824 89.8436 14.192C89.6356 14.56 89.4116 15 89.1716 15.512V13.952C89.4116 13.28 89.7076 12.696 90.0596 12.2C90.4276 11.688 90.8516 11.288 91.3316 11C91.8276 10.712 92.3876 10.568 93.0116 10.568C93.1716 10.568 93.3236 10.576 93.4676 10.592C93.6276 10.592 93.7476 10.608 93.8276 10.64ZM85.4276 23V21.92H85.4756C86.0516 21.92 86.5236 21.864 86.8916 21.752C87.2596 21.64 87.4436 21.408 87.4436 21.056V13.016C87.4436 12.776 87.3796 12.6 87.2516 12.488C87.1236 12.36 86.9236 12.256 86.6516 12.176C86.3956 12.096 86.0676 12.016 85.6676 11.936L85.4276 11.888V10.808H89.3636V14.312L89.5796 14.096V21.104C89.5796 21.36 89.6916 21.552 89.9156 21.68C90.1396 21.792 90.4036 21.864 90.7076 21.896C91.0276 21.912 91.3076 21.92 91.5476 21.92H91.9556V23H85.4276ZM107.78 16.904C107.78 18.136 107.508 19.232 106.964 20.192C106.436 21.152 105.7 21.904 104.756 22.448C103.812 22.976 102.732 23.24 101.516 23.24C100.3 23.24 99.2204 22.976 98.2764 22.448C97.3324 21.904 96.5884 21.152 96.0444 20.192C95.5164 19.232 95.2524 18.136 95.2524 16.904C95.2524 15.976 95.4044 15.128 95.7084 14.36C96.0124 13.576 96.4444 12.904 97.0044 12.344C97.5804 11.784 98.2444 11.352 98.9964 11.048C99.7644 10.728 100.604 10.568 101.516 10.568C102.428 10.568 103.26 10.728 104.012 11.048C104.78 11.352 105.444 11.784 106.004 12.344C106.58 12.904 107.02 13.576 107.324 14.36C107.628 15.128 107.78 15.976 107.78 16.904ZM97.5084 16.904C97.5084 17.896 97.6684 18.776 97.9884 19.544C98.3244 20.296 98.7884 20.88 99.3804 21.296C99.9884 21.696 100.7 21.896 101.516 21.896C102.348 21.896 103.06 21.696 103.652 21.296C104.244 20.88 104.7 20.296 105.02 19.544C105.356 18.776 105.524 17.896 105.524 16.904C105.524 15.896 105.356 15.016 105.02 14.264C104.7 13.512 104.244 12.936 103.652 12.536C103.06 12.12 102.348 11.912 101.516 11.912C100.7 11.912 99.9884 12.12 99.3804 12.536C98.7884 12.936 98.3244 13.512 97.9884 14.264C97.6684 15.016 97.5084 15.896 97.5084 16.904ZM122.309 12.488C121.605 12.424 121.005 12.392 120.509 12.392C120.013 12.392 119.597 12.448 119.261 12.56C118.941 12.656 118.677 12.84 118.469 13.112L118.157 12.752C118.381 12.288 118.637 11.896 118.925 11.576C119.229 11.24 119.557 10.968 119.909 10.76C120.261 10.552 120.637 10.416 121.037 10.352C121.437 10.272 121.861 10.256 122.309 10.304V12.488ZM115.277 19.376C114.349 19.376 113.517 19.2 112.781 18.848C112.061 18.48 111.493 17.968 111.077 17.312C110.661 16.656 110.453 15.888 110.453 15.008C110.453 14.128 110.661 13.36 111.077 12.704C111.509 12.032 112.085 11.512 112.805 11.144C113.541 10.76 114.365 10.568 115.277 10.568C116.205 10.568 117.029 10.76 117.749 11.144C118.485 11.512 119.061 12.032 119.477 12.704C119.909 13.36 120.125 14.128 120.125 15.008C120.125 15.888 119.909 16.656 119.477 17.312C119.061 17.968 118.485 18.48 117.749 18.848C117.029 19.2 116.205 19.376 115.277 19.376ZM115.277 18.008C115.837 18.008 116.317 17.888 116.717 17.648C117.133 17.408 117.453 17.072 117.677 16.64C117.901 16.192 118.013 15.648 118.013 15.008C118.013 14.352 117.901 13.8 117.677 13.352C117.453 12.888 117.133 12.536 116.717 12.296C116.317 12.056 115.837 11.936 115.277 11.936C114.733 11.936 114.253 12.056 113.837 12.296C113.437 12.536 113.125 12.888 112.901 13.352C112.677 13.8 112.565 14.352 112.565 15.008C112.565 15.648 112.677 16.192 112.901 16.64C113.125 17.072 113.437 17.408 113.837 17.648C114.253 17.888 114.733 18.008 115.277 18.008ZM114.917 28.688C113.845 28.688 112.877 28.584 112.013 28.376C111.149 28.168 110.461 27.832 109.949 27.368C109.453 26.904 109.205 26.288 109.205 25.52C109.205 25.136 109.301 24.784 109.493 24.464C109.701 24.144 110.005 23.84 110.405 23.552C110.805 23.28 111.317 23 111.941 22.712L112.829 23.336C112.429 23.528 112.101 23.736 111.845 23.96C111.589 24.184 111.397 24.416 111.269 24.656C111.157 24.896 111.101 25.152 111.101 25.424C111.101 25.824 111.237 26.152 111.509 26.408C111.781 26.68 112.197 26.888 112.757 27.032C113.333 27.176 114.061 27.248 114.941 27.248H115.781C116.597 27.248 117.325 27.144 117.965 26.936C118.605 26.744 119.101 26.472 119.453 26.12C119.821 25.768 120.005 25.36 120.005 24.896C120.005 24.432 119.829 24.096 119.477 23.888C119.141 23.696 118.501 23.6 117.557 23.6H112.133H112.061C111.549 23.328 111.141 23.072 110.837 22.832C110.533 22.576 110.317 22.312 110.189 22.04C110.077 21.768 110.021 21.48 110.021 21.176C110.021 20.792 110.117 20.432 110.309 20.096C110.501 19.76 110.789 19.44 111.173 19.136C111.557 18.816 112.045 18.52 112.637 18.248L113.549 18.896C113.229 19.056 112.949 19.224 112.709 19.4C112.469 19.576 112.285 19.76 112.157 19.952C112.045 20.144 111.989 20.352 111.989 20.576C111.989 20.912 112.157 21.16 112.493 21.32C112.845 21.464 113.341 21.536 113.981 21.536H117.581C118.541 21.536 119.341 21.648 119.981 21.872C120.637 22.08 121.133 22.408 121.469 22.856C121.805 23.288 121.973 23.84 121.973 24.512C121.973 25.456 121.685 26.232 121.109 26.84C120.549 27.464 119.797 27.928 118.853 28.232C117.925 28.536 116.909 28.688 115.805 28.688H114.917Z" fill="#171739"/>
</svg>
